<svg version="1.1" xmlns="http://www.w3.org/2000/svg" viewBox="0 0 311.8418256186269 299.5766921094772" width="623.6836512372538" height="599.1533842189544">
  <!-- svg-source:excalidraw -->
  
  <defs>
    <style class="style-fonts">
      @font-face {
        font-family: "Virgil";
        src: url("https://excalidraw.com/Virgil.woff2");
      }
      @font-face {
        font-family: "Cascadia";
        src: url("https://excalidraw.com/Cascadia.woff2");
      }
    </style>
  </defs>
  <g stroke-linecap="round"><g transform="translate(11.044950618626899 288.79053848417476) rotate(0 -0.301112302342176 -139.10189879496582)"><path d="M0.38 0.59 C0.38 -45.78, 0.42 -230.76, 0.17 -277.02 M-0.88 -0.15 C-1.04 -46.36, -1.03 -232.32, -0.69 -278.79" stroke="#000000" stroke-width="1" fill="none"></path></g><g transform="translate(11.044950618626899 288.79053848417476) rotate(0 -0.301112302342176 -139.10189879496582)"><path d="M10.46 -250.29 C7.11 -261.34, 3.93 -269.25, 0.7 -280.28 M8.56 -250.55 C6.28 -260.55, 1.99 -270.25, 0.19 -277.87" stroke="#000000" stroke-width="1" fill="none"></path></g><g transform="translate(11.044950618626899 288.79053848417476) rotate(0 -0.301112302342176 -139.10189879496582)"><path d="M-10.06 -250.35 C-6.91 -261.45, -3.6 -269.34, 0.7 -280.28 M-11.96 -250.62 C-7.4 -260.52, -4.85 -270.2, 0.19 -277.87" stroke="#000000" stroke-width="1" fill="none"></path></g></g><mask></mask><g stroke-linecap="round"><g transform="translate(11.736687920968961 288.46665602914055) rotate(0 136.60725486486888 -0.2749163666190384)"><path d="M-0.18 1.1 C45.54 1.19, 229.12 0.44, 274.95 0.31 M-1.74 0.64 C43.85 0.36, 228.43 -1.84, 274.46 -1.65" stroke="#000000" stroke-width="1" fill="none"></path></g><g transform="translate(11.736687920968961 288.46665602914055) rotate(0 136.60725486486888 -0.2749163666190384)"><path d="M248.16 10.2 C256.77 6.34, 266.7 -0.33, 275.61 0.35 M245.66 8 C253.76 5.44, 259.97 3.79, 274.96 -1.01" stroke="#000000" stroke-width="1" fill="none"></path></g><g transform="translate(11.736687920968961 288.46665602914055) rotate(0 136.60725486486888 -0.2749163666190384)"><path d="M248.06 -10.32 C256.67 -6.95, 266.64 -6.4, 275.61 0.35 M245.55 -12.52 C253.75 -10.06, 259.99 -6.67, 274.96 -1.01" stroke="#000000" stroke-width="1" fill="none"></path></g></g><mask></mask><g stroke-linecap="round"><g transform="translate(52.3887006186269 288.18897598417476) rotate(0 113.68664382304996 -117.54837805144487)"><path d="M1.02 0.63 C9.82 -32.76, 14.83 -160.12, 52.54 -199.52 C90.25 -238.91, 198.02 -229.63, 227.28 -235.73 M0.09 -0.08 C9.3 -33.39, 17.14 -159.2, 54.83 -198.24 C92.52 -237.29, 197.3 -228.2, 226.24 -234.35" stroke="#000000" stroke-width="1" fill="none"></path></g></g><mask></mask><g stroke-linecap="round" transform="translate(253.4160443686269 28.38038223417476) rotate(0 24.212890625 24.212890625)"><path d="M18.66 1.44 C23.33 -0.29, 31.26 -0.55, 35.76 1.78 C40.27 4.1, 43.76 10.49, 45.68 15.38 C47.6 20.27, 48.52 26.32, 47.3 31.11 C46.07 35.9, 42.79 41.14, 38.35 44.11 C33.9 47.08, 26.04 49.47, 20.64 48.92 C15.23 48.37, 9.46 44.62, 5.91 40.83 C2.37 37.05, -0.39 31.46, -0.63 26.2 C-0.88 20.95, 0.51 13.7, 4.43 9.3 C8.36 4.89, 19 1.15, 22.92 -0.22 C26.84 -1.6, 27.89 0.61, 27.96 1.05 M24.86 -0.61 C30.13 -0.77, 38.22 3.56, 41.94 7.08 C45.66 10.61, 46.96 15.33, 47.17 20.53 C47.39 25.72, 45.87 33.63, 43.22 38.24 C40.56 42.85, 36.14 46.58, 31.23 48.17 C26.31 49.77, 18.45 50.1, 13.75 47.79 C9.05 45.49, 5.31 39.27, 3.04 34.33 C0.78 29.39, -0.91 22.98, 0.17 18.15 C1.25 13.32, 5.54 8.59, 9.52 5.35 C13.49 2.11, 21.27 -0.53, 24.04 -1.29 C26.81 -2.05, 26.08 0.37, 26.12 0.78" stroke="#c92a2a" stroke-width="1" fill="none"></path></g></svg>