<svg version="1.1" xmlns="http://www.w3.org/2000/svg" viewBox="0 0 296.6878855716757 300.09016639887415" width="593.3757711433514" height="600.1803327977483">
  <!-- svg-source:excalidraw -->
  
  <defs>
    <style class="style-fonts">
      @font-face {
        font-family: "Virgil";
        src: url("https://excalidraw.com/Virgil.woff2");
      }
      @font-face {
        font-family: "Cascadia";
        src: url("https://excalidraw.com/Cascadia.woff2");
      }
    </style>
  </defs>
  <g stroke-linecap="round"><g transform="translate(11.044950618626899 289.3040127735717) rotate(0 -0.301112302342176 -139.10189879496582)"><path d="M0.38 0.59 C0.38 -45.78, 0.42 -230.76, 0.17 -277.02 M-0.88 -0.15 C-1.04 -46.36, -1.03 -232.32, -0.69 -278.79" stroke="#000000" stroke-width="1" fill="none"></path></g><g transform="translate(11.044950618626899 289.3040127735717) rotate(0 -0.301112302342176 -139.10189879496582)"><path d="M10.46 -250.29 C7.11 -261.34, 3.93 -269.25, 0.7 -280.28 M8.56 -250.55 C6.28 -260.55, 1.99 -270.25, 0.19 -277.87" stroke="#000000" stroke-width="1" fill="none"></path></g><g transform="translate(11.044950618626899 289.3040127735717) rotate(0 -0.301112302342176 -139.10189879496582)"><path d="M-10.06 -250.35 C-6.91 -261.45, -3.6 -269.34, 0.7 -280.28 M-11.96 -250.62 C-7.4 -260.52, -4.85 -270.2, 0.19 -277.87" stroke="#000000" stroke-width="1" fill="none"></path></g></g><mask></mask><g stroke-linecap="round"><g transform="translate(11.736687920968961 288.9801303185375) rotate(0 136.60725486486888 -0.2749163666190384)"><path d="M-0.18 1.1 C45.54 1.19, 229.12 0.44, 274.95 0.31 M-1.74 0.64 C43.85 0.36, 228.43 -1.84, 274.46 -1.65" stroke="#000000" stroke-width="1" fill="none"></path></g><g transform="translate(11.736687920968961 288.9801303185375) rotate(0 136.60725486486888 -0.2749163666190384)"><path d="M248.16 10.2 C256.77 6.34, 266.7 -0.33, 275.61 0.35 M245.66 8 C253.76 5.44, 259.97 3.79, 274.96 -1.01" stroke="#000000" stroke-width="1" fill="none"></path></g><g transform="translate(11.736687920968961 288.9801303185375) rotate(0 136.60725486486888 -0.2749163666190384)"><path d="M248.06 -10.32 C256.67 -6.95, 266.64 -6.4, 275.61 0.35 M245.55 -12.52 C253.75 -10.06, 259.99 -6.67, 274.96 -1.01" stroke="#000000" stroke-width="1" fill="none"></path></g></g><mask></mask><g stroke-linecap="round"><g transform="translate(52.3887006186269 288.7024502735717) rotate(0 113.68664382304996 -117.54837805144487)"><path d="M1.02 0.63 C9.82 -32.76, 14.83 -160.12, 52.54 -199.52 C90.25 -238.91, 198.02 -229.63, 227.28 -235.73 M0.09 -0.08 C9.3 -33.39, 17.14 -159.2, 54.83 -198.24 C92.52 -237.29, 197.3 -228.2, 226.24 -234.35" stroke="#000000" stroke-width="1" fill="none"></path></g></g><mask></mask><g stroke-linecap="round" transform="translate(68.7306331361383 -25.839162386623272) rotate(50.661260244835134 64.11289380793431 134.43338792414454)"><path d="M49.37 4.4 C56.22 -1.47, 66.04 -1.75, 73.56 0.46 C81.08 2.67, 87.84 9.67, 94.46 17.65 C101.08 25.63, 108.06 36.09, 113.27 48.35 C118.48 60.61, 123.35 75.74, 125.71 91.2 C128.06 106.66, 128 124.89, 127.4 141.11 C126.8 157.34, 125.21 173.77, 122.11 188.57 C119.02 203.38, 114.24 218.57, 108.84 229.95 C103.44 241.34, 96.72 250.46, 89.73 256.88 C82.74 263.31, 74.51 267.58, 66.9 268.47 C59.29 269.37, 51.35 267.35, 44.08 262.26 C36.8 257.17, 29.22 248.36, 23.25 237.92 C17.27 227.47, 11.88 213.75, 8.24 199.57 C4.59 185.4, 2.54 168.68, 1.38 152.87 C0.22 137.06, -0.45 120.54, 1.26 104.72 C2.97 88.89, 7.26 71.58, 11.62 57.91 C15.98 44.24, 19.96 32.19, 27.41 22.71 C34.86 13.23, 50.44 4.48, 56.33 1.03 C62.21 -2.42, 62.55 -0.29, 62.72 2 M43.07 7.83 C49.52 0.72, 57.23 -1.79, 65.08 -1.23 C72.93 -0.68, 83.02 4.76, 90.18 11.14 C97.33 17.53, 102.61 25.95, 108 37.09 C113.38 48.22, 118.99 63.23, 122.48 77.94 C125.98 92.65, 128.44 108.84, 128.96 125.35 C129.47 141.85, 128.04 161.54, 125.56 176.99 C123.08 192.43, 118.99 205.52, 114.07 218.04 C109.15 230.55, 102.84 243.85, 96.04 252.1 C89.24 260.34, 81 265.36, 73.29 267.53 C65.59 269.69, 57.19 268.88, 49.82 265.08 C42.44 261.29, 35.24 253.64, 29.04 244.76 C22.83 235.88, 17.33 224.94, 12.61 211.79 C7.89 198.64, 2.82 181.41, 0.71 165.87 C-1.4 150.32, -1.41 134.52, -0.04 118.53 C1.32 102.54, 5.02 84.36, 8.91 69.91 C12.79 55.47, 17.63 42.24, 23.26 31.87 C28.88 21.5, 39.15 11.29, 42.66 7.7 C46.18 4.11, 43.9 8.24, 44.35 10.34" stroke="#c92a2a" stroke-width="1" fill="none"></path></g></svg>