<svg version="1.1" xmlns="http://www.w3.org/2000/svg" viewBox="0 0 296.6878855716757 327.29444473417476" width="593.3757711433514" height="654.5888894683495">
  <!-- svg-source:excalidraw -->
  
  <defs>
    <style class="style-fonts">
      @font-face {
        font-family: "Virgil";
        src: url("https://excalidraw.com/Virgil.woff2");
      }
      @font-face {
        font-family: "Cascadia";
        src: url("https://excalidraw.com/Cascadia.woff2");
      }
    </style>
  </defs>
  <g stroke-linecap="round"><g transform="translate(11.044950618626899 288.79053848417476) rotate(0 -0.301112302342176 -139.10189879496582)"><path d="M0.38 0.59 C0.38 -45.78, 0.42 -230.76, 0.17 -277.02 M-0.88 -0.15 C-1.04 -46.36, -1.03 -232.32, -0.69 -278.79" stroke="#000000" stroke-width="1" fill="none"></path></g><g transform="translate(11.044950618626899 288.79053848417476) rotate(0 -0.301112302342176 -139.10189879496582)"><path d="M10.46 -250.29 C7.11 -261.34, 3.93 -269.25, 0.7 -280.28 M8.56 -250.55 C6.28 -260.55, 1.99 -270.25, 0.19 -277.87" stroke="#000000" stroke-width="1" fill="none"></path></g><g transform="translate(11.044950618626899 288.79053848417476) rotate(0 -0.301112302342176 -139.10189879496582)"><path d="M-10.06 -250.35 C-6.91 -261.45, -3.6 -269.34, 0.7 -280.28 M-11.96 -250.62 C-7.4 -260.52, -4.85 -270.2, 0.19 -277.87" stroke="#000000" stroke-width="1" fill="none"></path></g></g><mask></mask><g stroke-linecap="round"><g transform="translate(11.736687920968961 288.46665602914055) rotate(0 136.60725486486888 -0.2749163666190384)"><path d="M-0.18 1.1 C45.54 1.19, 229.12 0.44, 274.95 0.31 M-1.74 0.64 C43.85 0.36, 228.43 -1.84, 274.46 -1.65" stroke="#000000" stroke-width="1" fill="none"></path></g><g transform="translate(11.736687920968961 288.46665602914055) rotate(0 136.60725486486888 -0.2749163666190384)"><path d="M248.16 10.2 C256.77 6.34, 266.7 -0.33, 275.61 0.35 M245.66 8 C253.76 5.44, 259.97 3.79, 274.96 -1.01" stroke="#000000" stroke-width="1" fill="none"></path></g><g transform="translate(11.736687920968961 288.46665602914055) rotate(0 136.60725486486888 -0.2749163666190384)"><path d="M248.06 -10.32 C256.67 -6.95, 266.64 -6.4, 275.61 0.35 M245.55 -12.52 C253.75 -10.06, 259.99 -6.67, 274.96 -1.01" stroke="#000000" stroke-width="1" fill="none"></path></g></g><mask></mask><g stroke-linecap="round"><g transform="translate(52.3887006186269 288.18897598417476) rotate(0 113.68664382304996 -117.54837805144487)"><path d="M1.02 0.63 C9.82 -32.76, 14.83 -160.12, 52.54 -199.52 C90.25 -238.91, 198.02 -229.63, 227.28 -235.73 M0.09 -0.08 C9.3 -33.39, 17.14 -159.2, 54.83 -198.24 C92.52 -237.29, 197.3 -228.2, 226.24 -234.35" stroke="#000000" stroke-width="1" fill="none"></path></g></g><mask></mask><g stroke-linecap="round" transform="translate(26.5644818686269 259.50928848417476) rotate(0 28.892578125 28.892578125)"><path d="M34.86 1.2 C40.73 2.17, 48.4 7.16, 52.05 11.96 C55.71 16.76, 57.28 23.95, 56.8 30.01 C56.32 36.06, 53.15 43.76, 49.17 48.3 C45.19 52.85, 38.99 56.62, 32.9 57.26 C26.82 57.9, 18.11 55.44, 12.67 52.13 C7.23 48.82, 1.8 43.22, 0.24 37.42 C-1.32 31.62, 0.53 23.11, 3.32 17.32 C6.11 11.53, 11.04 5.32, 17 2.67 C22.96 0.03, 34.57 1.18, 39.09 1.45 C43.62 1.72, 44.24 3.69, 44.15 4.27 M32.28 -0.9 C37.91 -0.75, 44.2 4.41, 48.41 8.82 C52.61 13.23, 56.88 19.39, 57.51 25.58 C58.14 31.77, 55.51 40.52, 52.17 45.95 C48.83 51.37, 43.57 56.84, 37.45 58.13 C31.32 59.43, 21.35 56.39, 15.42 53.73 C9.49 51.08, 4.17 47.49, 1.86 42.22 C-0.44 36.94, -0.37 28.32, 1.59 22.09 C3.56 15.86, 8.65 8.49, 13.68 4.85 C18.7 1.21, 28.89 0.74, 31.75 0.24 C34.61 -0.26, 30.72 1.32, 30.83 1.86" stroke="#c92a2a" stroke-width="1" fill="none"></path></g></svg>